<svg width="20" height="20" viewBox="0 0 20 20" fill="none" xmlns="http://www.w3.org/2000/svg">
<g id="left-icon">
<path id="vector" fill-rule="evenodd" clip-rule="evenodd" d="M9.99967 3.9585C6.66295 3.9585 3.95801 6.66344 3.95801 10.0002C3.95801 13.3369 6.66295 16.0418 9.99967 16.0418C12.4341 16.0418 14.5323 14.6019 15.489 12.5273C14.7014 13.0874 13.7381 13.4168 12.6976 13.4168C10.034 13.4168 7.87467 11.2575 7.87467 8.59391C7.87467 6.50172 9.20688 4.72067 11.0693 4.05279C10.7222 3.99083 10.3648 3.9585 9.99967 3.9585ZM2.70801 10.0002C2.70801 5.97309 5.9726 2.7085 9.99967 2.7085C11.5665 2.7085 13.0197 3.20342 14.2089 4.04541L13.6768 5.15668C13.3664 5.06844 13.038 5.021 12.6976 5.021C10.7243 5.021 9.12467 6.62065 9.12467 8.59391C9.12467 10.5672 10.7243 12.1668 12.6976 12.1668C14.261 12.1668 15.5914 11.1623 16.0755 9.76156L17.2912 9.96252C17.2913 9.97506 17.2913 9.98761 17.2913 10.0002C17.2913 14.0272 14.0268 17.2918 9.99967 17.2918C5.9726 17.2918 2.70801 14.0272 2.70801 10.0002Z" fill="#D0D0D0"/>
</g>
</svg>
